<svg xmlns="http://www.w3.org/2000/svg" viewBox="0 0 512 512" width="512" height="512">
  <defs>
    <linearGradient id="bg" x1="0%" y1="0%" x2="100%" y2="100%">
      <stop offset="0%" style="stop-color:#1a73e8"/>
      <stop offset="100%" style="stop-color:#0d47a1"/>
    </linearGradient>
  </defs>
  <rect width="512" height="512" rx="80" fill="url(#bg)"/>
  <!-- Clipboard -->
  <rect x="140" y="80" width="232" height="320" rx="20" fill="white" opacity="0.95"/>
  <rect x="180" y="60" width="152" height="42" rx="20" fill="#ffd54f"/>
  <circle cx="256" cy="81" r="10" fill="#1a73e8"/>
  <!-- Checkmark lines -->
  <rect x="176" y="150" width="22" height="22" rx="5" fill="#0f9d58"/>
  <rect x="210" y="153" width="124" height="12" rx="5" fill="#ccc"/>
  <rect x="176" y="200" width="22" height="22" rx="5" fill="#0f9d58"/>
  <rect x="210" y="203" width="124" height="12" rx="5" fill="#ccc"/>
  <rect x="176" y="250" width="22" height="22" rx="5" fill="#0f9d58"/>
  <rect x="210" y="253" width="124" height="12" rx="5" fill="#ccc"/>
  <rect x="176" y="300" width="22" height="22" rx="5" fill="#f4b400"/>
  <rect x="210" y="303" width="90" height="12" rx="5" fill="#ccc"/>
  <!-- Bottom text -->
  <text x="256" y="456" text-anchor="middle" font-family="Arial,sans-serif" font-size="36" font-weight="bold" fill="white">SD N 1 SELOPURO</text>
</svg>